<svg width="84" height="118" viewBox="0 0 84 118" fill="none" xmlns="http://www.w3.org/2000/svg">
<g clip-path="url(#clip0_18_48)">
<path d="M72.29 55.4028L83.9999 0H80.0175L68.3076 55.4028H72.29Z" fill="#E5C183"/>
<path d="M20.677 55.2444H63.8111V54.7956L75.0067 0H71.0243L62.3474 42.4927H54.9891H22.1408L13.4639 0H9.48145L20.677 54.7956V55.2444ZM54.9891 46.3868H61.5562L60.5408 51.3371H55.332H23.9474L22.932 46.3868H54.9759H54.9891Z" fill="#E5C183"/>
<path d="M16.1801 55.4028L4.47021 0H0.487793L12.1977 55.4028H16.1801Z" fill="#E5C183"/>
<path d="M15.6791 62.6764L15.7055 62.6104H11.7099V62.65L11.6967 62.6764L0 118H3.98242L15.6791 62.6764Z" fill="#E5C183"/>
<path d="M63.3228 63.2044V62.7556H20.1888V63.2044L8.99316 118H12.9756L21.6525 75.5074H61.8591L70.536 117.987H74.5184L63.3228 63.1912V63.2044ZM53.2745 71.6132H22.4437L23.4591 66.663H28.6679H60.0525L61.0679 71.6132H53.2877H53.2745Z" fill="#E5C183"/>
<path d="M71.8022 62.6104H67.8198L67.833 62.6764L79.5297 118H83.5121L71.8154 62.6764L71.8022 62.6104Z" fill="#E5C183"/>
</g>
<defs>
<clipPath id="clip0_18_48">
<rect width="84" height="118" fill="white"/>
</clipPath>
</defs>
</svg>
